<svg width="98" height="25" viewBox="0 0 98 25" fill="none" xmlns="http://www.w3.org/2000/svg">
<path d="M1.65526 0.7H17.6033C21.4913 0.7 23.5073 2.644 23.5073 6.028C23.5073 8.8 22.2113 10.6 19.6193 11.716L6.37126 17.368C5.61526 17.692 5.14726 18.34 5.14726 19.168C5.14726 20.104 5.75926 20.752 6.94726 20.752H22.9673V25H6.65926C2.77126 25 0.791258 23.056 0.791258 19.672C0.791258 16.9 2.08726 15.1 4.71526 13.984L17.8913 8.332C18.6833 8.008 19.1513 7.36 19.1513 6.532C19.1513 5.596 18.5393 4.948 17.3153 4.948H1.65526V0.7ZM33.6486 5.992H39.8046C44.3046 5.992 46.2126 8.152 46.2126 11.824C46.2126 15.316 44.4486 17.296 39.7686 17.296H30.7326V18.664C30.7326 20.176 31.5606 21.292 33.6486 21.292H45.2766V25H33.6486C28.8966 25 27.0246 22.336 27.0246 18.736V12.256C27.0246 8.656 28.8966 5.992 33.6486 5.992ZM30.7326 12.292V14.308H39.6606C41.7126 14.308 42.4686 13.444 42.4686 12.04C42.4686 10.6 41.6406 9.664 39.7686 9.664H33.6486C31.5606 9.664 30.7326 10.816 30.7326 12.292ZM53.5689 5.992H61.4169C67.8609 5.992 70.9929 9.052 70.9929 14.308V25H67.1409V14.308C67.1409 11.32 65.4129 9.664 61.4169 9.664H55.1889C54.8649 9.664 54.7209 9.844 54.7209 10.204V25H50.9049V8.944C50.9049 6.712 51.6609 5.992 53.5689 5.992ZM86.6541 0.7H96.6621V4.948H86.6541C81.9741 4.948 79.9221 7.288 79.9221 12.868C79.9221 18.412 81.9381 20.752 86.6541 20.752H90.6861C93.0621 20.752 94.0701 19.312 94.0701 17.332C94.0701 15.388 93.0621 14.236 91.0821 14.236H85.6821V10.528H91.5141C95.8341 10.528 97.9581 13.192 97.9581 17.404C97.9581 21.652 95.8341 25 90.3981 25H86.6541C79.5621 25 75.6741 21.004 75.6741 12.868C75.6741 4.696 79.5981 0.7 86.6541 0.7Z" fill="#121212"/>
</svg>
