<svg width="1920" height="1081" viewBox="0 0 1920 1081" fill="none" xmlns="http://www.w3.org/2000/svg">
<g opacity="0.2">
<g clip-path="url(#clip0_15231_632)">
<path d="M1371.71 367.642V714.327L1920 1080.32V1080.93H1919.07L1370.97 715.104L1370.59 714.826V367.143L1370.84 366.976L1919.07 1.04004H1920V1.6503L1371.71 367.642Z" fill="url(#paint0_linear_15231_632)"/>
<path d="M1821.89 66.8926H1820.77V1015.08H1821.89V66.8926Z" fill="url(#paint1_linear_15231_632)"/>
<path d="M1759.44 108.613H1758.32V973.357H1759.44V108.613Z" fill="url(#paint2_linear_15231_632)"/>
<path d="M1705.38 144.674H1704.26V937.295H1705.38V144.674Z" fill="url(#paint3_linear_15231_632)"/>
<path d="M1658.22 176.131H1657.1V905.784H1658.22V176.131Z" fill="url(#paint4_linear_15231_632)"/>
<path d="M1616.65 203.869H1615.53V878.044H1616.65V203.869Z" fill="url(#paint5_linear_15231_632)"/>
<path d="M1579.74 228.502H1578.62V853.412H1579.74V228.502Z" fill="url(#paint6_linear_15231_632)"/>
<path d="M1546.81 250.526H1545.69V831.442H1546.81V250.526Z" fill="url(#paint7_linear_15231_632)"/>
<path d="M1517.17 270.277H1516.05V811.637H1517.17V270.277Z" fill="url(#paint8_linear_15231_632)"/>
<path d="M1490.39 288.142H1489.27V793.773H1490.39V288.142Z" fill="url(#paint9_linear_15231_632)"/>
<path d="M1466.1 304.396H1464.98V777.573H1466.1V304.396Z" fill="url(#paint10_linear_15231_632)"/>
<path d="M1443.91 319.21H1442.79V762.761H1443.91V319.21Z" fill="url(#paint11_linear_15231_632)"/>
<path d="M1423.6 332.746H1422.48V749.168H1423.6V332.746Z" fill="url(#paint12_linear_15231_632)"/>
<path d="M1404.89 345.229H1403.77V736.741H1404.89V345.229Z" fill="url(#paint13_linear_15231_632)"/>
<path d="M1387.68 356.713H1386.56V725.201H1387.68V356.713Z" fill="url(#paint14_linear_15231_632)"/>
<path d="M1920 72.4404V73.6055L1371.46 390.943L1370.84 390.11L1920 72.4404Z" fill="url(#paint15_linear_15231_632)"/>
<path d="M1920 144.452V145.562L1371.4 414.133L1370.9 413.245L1920 144.452Z" fill="url(#paint16_linear_15231_632)"/>
<path d="M1920 216.463V217.572L1371.4 437.267L1370.9 436.38L1920 216.463Z" fill="url(#paint17_linear_15231_632)"/>
<path d="M1920 288.474V289.528L1371.34 460.457L1370.97 459.514L1920 288.474Z" fill="url(#paint18_linear_15231_632)"/>
<path d="M1920 360.485V361.484L1371.28 483.592L1371.03 482.649L1920 360.485Z" fill="url(#paint19_linear_15231_632)"/>
<path d="M1920 432.496V433.495L1371.22 506.726L1371.09 505.783L1920 432.496Z" fill="url(#paint20_linear_15231_632)"/>
<path d="M1920 504.508V505.506L1371.15 529.917V528.918L1920 504.508Z" fill="url(#paint21_linear_15231_632)"/>
<path d="M1920 576.463V577.462L1371.09 553.051L1371.15 552.053L1920 576.463Z" fill="url(#paint22_linear_15231_632)"/>
<path d="M1920 648.474V649.472L1371.09 576.185L1371.22 575.242L1920 648.474Z" fill="url(#paint23_linear_15231_632)"/>
<path d="M1920 720.485V721.484L1371.03 599.32L1371.28 598.377L1920 720.485Z" fill="url(#paint24_linear_15231_632)"/>
<path d="M1920 792.441V793.495L1370.97 622.455L1371.34 621.512L1920 792.441Z" fill="url(#paint25_linear_15231_632)"/>
<path d="M1920 864.397V865.507L1370.9 645.59L1371.4 644.702L1920 864.397Z" fill="url(#paint26_linear_15231_632)"/>
<path d="M1920 936.407V937.517L1370.9 668.724L1371.4 667.836L1920 936.407Z" fill="url(#paint27_linear_15231_632)"/>
<path d="M1920 1008.36V1009.53L1370.84 691.859L1371.46 691.026L1920 1008.36Z" fill="url(#paint28_linear_15231_632)"/>
<path d="M549.406 367.143V714.826L549.157 714.993L549.033 715.104L0.932039 1080.93H0V1080.32L548.287 714.327V367.642L0 1.6503V1.04004H0.932039L549.406 367.143Z" fill="url(#paint29_linear_15231_632)"/>
<path d="M99.2308 66.8926H98.1123V1015.08H99.2308V66.8926Z" fill="url(#paint30_linear_15231_632)"/>
<path d="M161.678 108.613H160.56V973.412H161.678V108.613Z" fill="url(#paint31_linear_15231_632)"/>
<path d="M215.736 144.674H214.617V937.295H215.736V144.674Z" fill="url(#paint32_linear_15231_632)"/>
<path d="M262.897 176.131H261.778V905.784H262.897V176.131Z" fill="url(#paint33_linear_15231_632)"/>
<path d="M304.466 203.869H303.348V878.044H304.466V203.869Z" fill="url(#paint34_linear_15231_632)"/>
<path d="M341.374 228.502H340.256V853.412H341.374V228.502Z" fill="url(#paint35_linear_15231_632)"/>
<path d="M374.306 250.526H373.188V831.442H374.306V250.526Z" fill="url(#paint36_linear_15231_632)"/>
<path d="M403.947 270.277H402.828V811.637H403.947V270.277Z" fill="url(#paint37_linear_15231_632)"/>
<path d="M430.726 288.142H429.607V793.773H430.726V288.142Z" fill="url(#paint38_linear_15231_632)"/>
<path d="M455.083 304.396H453.965V777.573H455.083V304.396Z" fill="url(#paint39_linear_15231_632)"/>
<path d="M477.267 319.21H476.148V762.761H477.267V319.21Z" fill="url(#paint40_linear_15231_632)"/>
<path d="M497.585 332.746H496.467V749.168H497.585V332.746Z" fill="url(#paint41_linear_15231_632)"/>
<path d="M516.226 345.229H515.107V736.741H516.226V345.229Z" fill="url(#paint42_linear_15231_632)"/>
<path d="M533.499 356.713H532.381V725.201H533.499V356.713Z" fill="url(#paint43_linear_15231_632)"/>
<path d="M549.157 390.11L548.536 390.943L0 73.6055V72.4404L549.157 390.11Z" fill="url(#paint44_linear_15231_632)"/>
<path d="M549.095 413.245L548.598 414.133L0 145.562V144.452L549.095 413.245Z" fill="url(#paint45_linear_15231_632)"/>
<path d="M549.095 436.38L548.598 437.267L0 217.572V216.463L549.095 436.38Z" fill="url(#paint46_linear_15231_632)"/>
<path d="M549.033 459.514L548.66 460.457L0 289.528V288.474L549.033 459.514Z" fill="url(#paint47_linear_15231_632)"/>
<path d="M548.971 482.649L548.722 483.592L0 361.484V360.485L548.971 482.649Z" fill="url(#paint48_linear_15231_632)"/>
<path d="M548.909 505.783L548.784 506.726L0 433.495V432.496L548.909 505.783Z" fill="url(#paint49_linear_15231_632)"/>
<path d="M548.847 528.918V529.917L0 505.506V504.508L548.847 528.918Z" fill="url(#paint50_linear_15231_632)"/>
<path d="M548.847 553.051L0 577.462V576.463L548.847 552.053V553.051Z" fill="url(#paint51_linear_15231_632)"/>
<path d="M548.909 576.185L0 649.472V648.474L548.784 575.242L548.909 576.185Z" fill="url(#paint52_linear_15231_632)"/>
<path d="M548.971 599.32L0 721.484V720.485L548.722 598.377L548.971 599.32Z" fill="url(#paint53_linear_15231_632)"/>
<path d="M549.033 622.455L0 793.495V792.441L548.66 621.512L549.033 622.455Z" fill="url(#paint54_linear_15231_632)"/>
<path d="M549.095 645.59L0 865.507V864.397L548.598 644.702L549.095 645.59Z" fill="url(#paint55_linear_15231_632)"/>
<path d="M549.095 668.724L0 937.517V936.407L548.598 667.836L549.095 668.724Z" fill="url(#paint56_linear_15231_632)"/>
<path d="M549.157 691.859L0 1009.53V1008.36L548.536 691.026L549.157 691.859Z" fill="url(#paint57_linear_15231_632)"/>
<path d="M1920 0.984375V1.65012L1371.34 367.864H548.66L548.536 367.753L0 1.65012V0.984375H0.807767L549.033 366.921H1370.97L1919.19 0.984375H1920Z" fill="url(#paint58_linear_15231_632)"/>
<path d="M1821.33 66.3936H98.6719V67.3922H1821.33V66.3936Z" fill="url(#paint59_linear_15231_632)"/>
<path d="M1758.82 108.113H161.118V109.112H1758.82V108.113Z" fill="url(#paint60_linear_15231_632)"/>
<path d="M1704.82 144.175H215.177V145.173H1704.82V144.175Z" fill="url(#paint61_linear_15231_632)"/>
<path d="M1657.66 175.686H262.338V176.684H1657.66V175.686Z" fill="url(#paint62_linear_15231_632)"/>
<path d="M1616.09 203.425H303.906V204.423H1616.09V203.425Z" fill="url(#paint63_linear_15231_632)"/>
<path d="M1579.19 228.003H340.816V229.002H1579.19V228.003Z" fill="url(#paint64_linear_15231_632)"/>
<path d="M1546.19 250.027H373.748V251.026H1546.19V250.027Z" fill="url(#paint65_linear_15231_632)"/>
<path d="M1516.61 269.778H403.387V270.777H1516.61V269.778Z" fill="url(#paint66_linear_15231_632)"/>
<path d="M1489.83 287.697H430.168V288.696H1489.83V287.697Z" fill="url(#paint67_linear_15231_632)"/>
<path d="M1465.48 303.896H454.463V304.895H1465.48V303.896Z" fill="url(#paint68_linear_15231_632)"/>
<path d="M1443.36 318.709H476.707V319.708H1443.36V318.709Z" fill="url(#paint69_linear_15231_632)"/>
<path d="M1423.04 332.302H497.025V333.3H1423.04V332.302Z" fill="url(#paint70_linear_15231_632)"/>
<path d="M1404.33 344.729H515.666V345.727H1404.33V344.729Z" fill="url(#paint71_linear_15231_632)"/>
<path d="M1387.06 356.269H532.877V357.267H1387.06V356.269Z" fill="url(#paint72_linear_15231_632)"/>
<path d="M604.024 367.032L603.34 367.753L602.222 366.921L127.068 0.984375H128.746L603.899 366.921L604.024 367.032Z" fill="url(#paint73_linear_15231_632)"/>
<path d="M658.889 367.032L658.082 367.753L657.212 366.921L255.192 0.984375H256.684L658.703 366.921L658.889 367.032Z" fill="url(#paint74_linear_15231_632)"/>
<path d="M713.755 367.087L712.885 367.697L712.139 366.921L383.254 0.984375H384.683L713.568 366.921L713.755 367.087Z" fill="url(#paint75_linear_15231_632)"/>
<path d="M768.621 367.142L767.689 367.642L767.13 366.921L511.316 0.984375H512.621L768.435 366.921L768.621 367.142Z" fill="url(#paint76_linear_15231_632)"/>
<path d="M823.488 367.198L822.431 367.586L822.121 366.921L639.379 0.984375H640.56L823.301 366.921L823.488 367.198Z" fill="url(#paint77_linear_15231_632)"/>
<path d="M878.292 367.253L877.236 367.475L877.049 366.921L767.441 0.984375H768.56L878.168 366.921L878.292 367.253Z" fill="url(#paint78_linear_15231_632)"/>
<path d="M933.158 367.309L932.039 367.42L931.977 366.921L895.441 0.984375H896.56L933.096 366.921L933.158 367.309Z" fill="url(#paint79_linear_15231_632)"/>
<path d="M1024.56 0.984375L988.022 366.921L987.96 367.42L986.842 367.309L986.904 366.921L1023.44 0.984375H1024.56Z" fill="url(#paint80_linear_15231_632)"/>
<path d="M1152.56 0.984375L1042.95 366.921L1042.77 367.475L1041.71 367.253L1041.83 366.921L1151.44 0.984375H1152.56Z" fill="url(#paint81_linear_15231_632)"/>
<path d="M1280.62 0.984375L1097.88 366.921L1097.57 367.586L1096.51 367.198L1096.7 366.921L1279.44 0.984375H1280.62Z" fill="url(#paint82_linear_15231_632)"/>
<path d="M1408.68 0.984375L1152.87 366.921L1152.31 367.642L1151.38 367.142L1151.57 366.921L1407.38 0.984375H1408.68Z" fill="url(#paint83_linear_15231_632)"/>
<path d="M1536.75 0.984375L1207.86 366.921L1207.11 367.697L1206.24 367.087L1206.43 366.921L1535.32 0.984375H1536.75Z" fill="url(#paint84_linear_15231_632)"/>
<path d="M1664.87 0.984375L1262.79 366.921L1261.92 367.753L1261.11 367.032L1261.24 366.921L1663.32 0.984375H1664.87Z" fill="url(#paint85_linear_15231_632)"/>
<path d="M1792.93 0.984375L1317.78 366.921L1316.66 367.753L1315.98 367.032L1316.1 366.921L1791.25 0.984375H1792.93Z" fill="url(#paint86_linear_15231_632)"/>
<path d="M0 1080.98V1080.32L548.66 714.104H1371.34L1371.46 714.215L1920 1080.32V1080.98H1919.19L1370.97 715.048H549.033L0.807767 1080.98H0Z" fill="url(#paint87_linear_15231_632)"/>
<path d="M1821.33 1014.58H98.6719V1015.57H1821.33V1014.58Z" fill="url(#paint88_linear_15231_632)"/>
<path d="M1758.82 972.855H161.118V973.854H1758.82V972.855Z" fill="url(#paint89_linear_15231_632)"/>
<path d="M1704.82 936.795H215.177V937.793H1704.82V936.795Z" fill="url(#paint90_linear_15231_632)"/>
<path d="M1657.66 905.339H262.338V906.338H1657.66V905.339Z" fill="url(#paint91_linear_15231_632)"/>
<path d="M1616.09 877.6H303.906V878.598H1616.09V877.6Z" fill="url(#paint92_linear_15231_632)"/>
<path d="M1579.19 852.967H340.816V853.965H1579.19V852.967Z" fill="url(#paint93_linear_15231_632)"/>
<path d="M1546.19 830.942H373.748V831.941H1546.19V830.942Z" fill="url(#paint94_linear_15231_632)"/>
<path d="M1516.61 811.191H403.387V812.19H1516.61V811.191Z" fill="url(#paint95_linear_15231_632)"/>
<path d="M1489.83 793.328H430.168V794.327H1489.83V793.328Z" fill="url(#paint96_linear_15231_632)"/>
<path d="M1465.48 777.073H454.463V778.072H1465.48V777.073Z" fill="url(#paint97_linear_15231_632)"/>
<path d="M1443.36 762.26H476.707V763.258H1443.36V762.26Z" fill="url(#paint98_linear_15231_632)"/>
<path d="M1423.04 748.723H497.025V749.721H1423.04V748.723Z" fill="url(#paint99_linear_15231_632)"/>
<path d="M1404.33 736.24H515.666V737.239H1404.33V736.24Z" fill="url(#paint100_linear_15231_632)"/>
<path d="M1387.12 724.756H532.939V725.754H1387.12V724.756Z" fill="url(#paint101_linear_15231_632)"/>
<path d="M1315.98 714.937L1316.66 714.216L1317.78 715.048L1792.93 1080.98H1791.25L1316.1 715.048L1315.98 714.937Z" fill="url(#paint102_linear_15231_632)"/>
<path d="M1261.11 714.936L1261.92 714.215L1262.79 715.047L1664.81 1080.98H1663.32L1261.3 715.047L1261.11 714.936Z" fill="url(#paint103_linear_15231_632)"/>
<path d="M1206.24 714.881L1207.11 714.271L1207.86 715.047L1536.75 1080.98H1535.32L1206.43 715.047L1206.24 714.881Z" fill="url(#paint104_linear_15231_632)"/>
<path d="M1151.38 714.826L1152.31 714.327L1152.87 715.048L1408.68 1080.98H1407.38L1151.57 715.048L1151.38 714.826Z" fill="url(#paint105_linear_15231_632)"/>
<path d="M1096.51 714.77L1097.57 714.382L1097.88 715.048L1280.62 1080.98H1279.44L1096.7 715.048L1096.51 714.77Z" fill="url(#paint106_linear_15231_632)"/>
<path d="M1041.71 714.714L1042.77 714.492L1042.95 715.047L1152.56 1080.98H1151.44L1041.83 715.047L1041.71 714.714Z" fill="url(#paint107_linear_15231_632)"/>
<path d="M986.842 714.659L987.96 714.548L988.022 715.047L1024.56 1080.98H1023.44L986.904 715.047L986.842 714.659Z" fill="url(#paint108_linear_15231_632)"/>
<path d="M895.441 1080.98L931.977 715.047L932.039 714.548L933.158 714.659L933.096 715.047L896.56 1080.98H895.441Z" fill="url(#paint109_linear_15231_632)"/>
<path d="M767.441 1080.98L877.049 715.047L877.236 714.492L878.292 714.714L878.168 715.047L768.56 1080.98H767.441Z" fill="url(#paint110_linear_15231_632)"/>
<path d="M639.379 1080.98L822.121 715.048L822.431 714.382L823.488 714.77L823.301 715.048L640.56 1080.98H639.379Z" fill="url(#paint111_linear_15231_632)"/>
<path d="M511.316 1080.98L767.13 715.048L767.689 714.327L768.621 714.826L768.435 715.048L512.621 1080.98H511.316Z" fill="url(#paint112_linear_15231_632)"/>
<path d="M383.254 1080.98L712.139 715.047L712.885 714.271L713.755 714.881L713.568 715.047L384.683 1080.98H383.254Z" fill="url(#paint113_linear_15231_632)"/>
<path d="M255.13 1080.98L657.211 715.048L658.081 714.216L658.889 714.937L658.765 715.048L256.683 1080.98H255.13Z" fill="url(#paint114_linear_15231_632)"/>
<path d="M127.068 1080.98L602.222 715.047L603.34 714.215L604.024 714.936L603.899 715.047L128.746 1080.98H127.068Z" fill="url(#paint115_linear_15231_632)"/>
</g>
<rect x="0.5" y="1.48438" width="1919" height="1079" stroke="#40E377"/>
</g>
<defs>
<linearGradient id="paint0_linear_15231_632" x1="1915.16" y1="540.985" x2="1378.19" y2="540.985" gradientUnits="userSpaceOnUse">
<stop stop-color="#40E377"/>
<stop offset="1"/>
</linearGradient>
<linearGradient id="paint1_linear_15231_632" x1="1831.55" y1="540.984" x2="1775.57" y2="540.984" gradientUnits="userSpaceOnUse">
<stop stop-color="#58BB43"/>
<stop offset="1"/>
</linearGradient>
<linearGradient id="paint2_linear_15231_632" x1="1776.92" y1="540.985" x2="1716.14" y2="540.985" gradientUnits="userSpaceOnUse">
<stop stop-color="#58BB43"/>
<stop offset="1"/>
</linearGradient>
<linearGradient id="paint3_linear_15231_632" x1="1730.86" y1="540.985" x2="1665.22" y2="540.985" gradientUnits="userSpaceOnUse">
<stop stop-color="#58BB43"/>
<stop offset="1"/>
</linearGradient>
<linearGradient id="paint4_linear_15231_632" x1="1691.76" y1="540.986" x2="1621.17" y2="540.986" gradientUnits="userSpaceOnUse">
<stop stop-color="#58BB43"/>
<stop offset="1"/>
</linearGradient>
<linearGradient id="paint5_linear_15231_632" x1="1658.38" y1="540.985" x2="1582.8" y2="540.985" gradientUnits="userSpaceOnUse">
<stop stop-color="#58BB43"/>
<stop offset="1"/>
</linearGradient>
<linearGradient id="paint6_linear_15231_632" x1="1629.79" y1="540.985" x2="1549.16" y2="540.985" gradientUnits="userSpaceOnUse">
<stop stop-color="#58BB43"/>
<stop offset="1"/>
</linearGradient>
<linearGradient id="paint7_linear_15231_632" x1="1605.26" y1="540.984" x2="1519.48" y2="540.984" gradientUnits="userSpaceOnUse">
<stop stop-color="#58BB43"/>
<stop offset="1"/>
</linearGradient>
<linearGradient id="paint8_linear_15231_632" x1="1584.2" y1="540.985" x2="1493.17" y2="540.985" gradientUnits="userSpaceOnUse">
<stop stop-color="#58BB43"/>
<stop offset="1"/>
</linearGradient>
<linearGradient id="paint9_linear_15231_632" x1="1566.09" y1="540.985" x2="1469.77" y2="540.985" gradientUnits="userSpaceOnUse">
<stop stop-color="#58BB43"/>
<stop offset="1"/>
</linearGradient>
<linearGradient id="paint10_linear_15231_632" x1="1550.56" y1="540.985" x2="1448.88" y2="540.985" gradientUnits="userSpaceOnUse">
<stop stop-color="#58BB43"/>
<stop offset="1"/>
</linearGradient>
<linearGradient id="paint11_linear_15231_632" x1="1537.3" y1="540.986" x2="1430.17" y2="540.986" gradientUnits="userSpaceOnUse">
<stop stop-color="#58BB43"/>
<stop offset="1"/>
</linearGradient>
<linearGradient id="paint12_linear_15231_632" x1="1526.04" y1="540.985" x2="1413.38" y2="540.985" gradientUnits="userSpaceOnUse">
<stop stop-color="#58BB43"/>
<stop offset="1"/>
</linearGradient>
<linearGradient id="paint13_linear_15231_632" x1="1516.56" y1="540.985" x2="1398.28" y2="540.985" gradientUnits="userSpaceOnUse">
<stop stop-color="#58BB43"/>
<stop offset="1"/>
</linearGradient>
<linearGradient id="paint14_linear_15231_632" x1="1508.69" y1="540.985" x2="1384.68" y2="540.985" gradientUnits="userSpaceOnUse">
<stop stop-color="#58BB43"/>
<stop offset="1"/>
</linearGradient>
<linearGradient id="paint15_linear_15231_632" x1="1915.84" y1="231.697" x2="1374.98" y2="231.697" gradientUnits="userSpaceOnUse">
<stop stop-color="#58BB43"/>
<stop offset="1"/>
</linearGradient>
<linearGradient id="paint16_linear_15231_632" x1="1916.56" y1="279.284" x2="1375.22" y2="279.284" gradientUnits="userSpaceOnUse">
<stop stop-color="#58BB43"/>
<stop offset="1"/>
</linearGradient>
<linearGradient id="paint17_linear_15231_632" x1="1917.28" y1="326.875" x2="1375.45" y2="326.875" gradientUnits="userSpaceOnUse">
<stop stop-color="#58BB43"/>
<stop offset="1"/>
</linearGradient>
<linearGradient id="paint18_linear_15231_632" x1="1918.01" y1="374.466" x2="1375.69" y2="374.466" gradientUnits="userSpaceOnUse">
<stop stop-color="#58BB43"/>
<stop offset="1"/>
</linearGradient>
<linearGradient id="paint19_linear_15231_632" x1="1918.73" y1="422.048" x2="1375.93" y2="422.048" gradientUnits="userSpaceOnUse">
<stop stop-color="#58BB43"/>
<stop offset="1"/>
</linearGradient>
<linearGradient id="paint20_linear_15231_632" x1="1920" y1="469.62" x2="1376.71" y2="469.62" gradientUnits="userSpaceOnUse">
<stop stop-color="#58BB43"/>
<stop offset="1"/>
</linearGradient>
<linearGradient id="paint21_linear_15231_632" x1="1920" y1="517.202" x2="1376.22" y2="517.202" gradientUnits="userSpaceOnUse">
<stop stop-color="#58BB43"/>
<stop offset="1"/>
</linearGradient>
<linearGradient id="paint22_linear_15231_632" x1="1920.91" y1="564.769" x2="1376.65" y2="564.769" gradientUnits="userSpaceOnUse">
<stop stop-color="#58BB43"/>
<stop offset="1"/>
</linearGradient>
<linearGradient id="paint23_linear_15231_632" x1="1921.64" y1="612.345" x2="1376.89" y2="612.345" gradientUnits="userSpaceOnUse">
<stop stop-color="#58BB43"/>
<stop offset="1"/>
</linearGradient>
<linearGradient id="paint24_linear_15231_632" x1="1922.38" y1="659.922" x2="1377.13" y2="659.922" gradientUnits="userSpaceOnUse">
<stop stop-color="#58BB43"/>
<stop offset="1"/>
</linearGradient>
<linearGradient id="paint25_linear_15231_632" x1="1923.11" y1="707.504" x2="1377.37" y2="707.504" gradientUnits="userSpaceOnUse">
<stop stop-color="#58BB43"/>
<stop offset="1"/>
</linearGradient>
<linearGradient id="paint26_linear_15231_632" x1="1923.84" y1="755.096" x2="1377.61" y2="755.096" gradientUnits="userSpaceOnUse">
<stop stop-color="#58BB43"/>
<stop offset="1"/>
</linearGradient>
<linearGradient id="paint27_linear_15231_632" x1="1924.58" y1="802.682" x2="1377.85" y2="802.682" gradientUnits="userSpaceOnUse">
<stop stop-color="#58BB43"/>
<stop offset="1"/>
</linearGradient>
<linearGradient id="paint28_linear_15231_632" x1="1925.31" y1="850.274" x2="1378.1" y2="850.274" gradientUnits="userSpaceOnUse">
<stop stop-color="#58BB43"/>
<stop offset="1"/>
</linearGradient>
<linearGradient id="paint29_linear_15231_632" x1="2.62506" y1="540.985" x2="542.454" y2="540.985" gradientUnits="userSpaceOnUse">
<stop stop-color="#58BB43"/>
<stop offset="1"/>
</linearGradient>
<linearGradient id="paint30_linear_15231_632" x1="80.2441" y1="540.984" x2="181.571" y2="540.984" gradientUnits="userSpaceOnUse">
<stop stop-color="#58BB43"/>
<stop offset="1"/>
</linearGradient>
<linearGradient id="paint31_linear_15231_632" x1="128.764" y1="540.985" x2="237.878" y2="540.985" gradientUnits="userSpaceOnUse">
<stop stop-color="#58BB43"/>
<stop offset="1"/>
</linearGradient>
<linearGradient id="paint32_linear_15231_632" x1="168.846" y1="540.985" x2="285.778" y2="540.985" gradientUnits="userSpaceOnUse">
<stop stop-color="#58BB43"/>
<stop offset="1"/>
</linearGradient>
<linearGradient id="paint33_linear_15231_632" x1="202.123" y1="540.986" x2="326.825" y2="540.986" gradientUnits="userSpaceOnUse">
<stop stop-color="#58BB43"/>
<stop offset="1"/>
</linearGradient>
<linearGradient id="paint34_linear_15231_632" x1="229.819" y1="540.985" x2="362.257" y2="540.985" gradientUnits="userSpaceOnUse">
<stop stop-color="#58BB43"/>
<stop offset="1"/>
</linearGradient>
<linearGradient id="paint35_linear_15231_632" x1="252.855" y1="540.985" x2="393.042" y2="540.985" gradientUnits="userSpaceOnUse">
<stop stop-color="#58BB43"/>
<stop offset="1"/>
</linearGradient>
<linearGradient id="paint36_linear_15231_632" x1="271.995" y1="540.984" x2="419.909" y2="540.984" gradientUnits="userSpaceOnUse">
<stop stop-color="#58BB43"/>
<stop offset="1"/>
</linearGradient>
<linearGradient id="paint37_linear_15231_632" x1="287.813" y1="540.985" x2="443.468" y2="540.985" gradientUnits="userSpaceOnUse">
<stop stop-color="#58BB43"/>
<stop offset="1"/>
</linearGradient>
<linearGradient id="paint38_linear_15231_632" x1="300.847" y1="540.985" x2="464.171" y2="540.985" gradientUnits="userSpaceOnUse">
<stop stop-color="#58BB43"/>
<stop offset="1"/>
</linearGradient>
<linearGradient id="paint39_linear_15231_632" x1="311.436" y1="540.985" x2="482.435" y2="540.985" gradientUnits="userSpaceOnUse">
<stop stop-color="#58BB43"/>
<stop offset="1"/>
</linearGradient>
<linearGradient id="paint40_linear_15231_632" x1="319.887" y1="540.986" x2="498.583" y2="540.986" gradientUnits="userSpaceOnUse">
<stop stop-color="#58BB43"/>
<stop offset="1"/>
</linearGradient>
<linearGradient id="paint41_linear_15231_632" x1="326.556" y1="540.985" x2="512.87" y2="540.985" gradientUnits="userSpaceOnUse">
<stop stop-color="#58BB43"/>
<stop offset="1"/>
</linearGradient>
<linearGradient id="paint42_linear_15231_632" x1="331.587" y1="540.986" x2="525.532" y2="540.986" gradientUnits="userSpaceOnUse">
<stop stop-color="#58BB43"/>
<stop offset="1"/>
</linearGradient>
<linearGradient id="paint43_linear_15231_632" x1="335.199" y1="540.985" x2="536.759" y2="540.985" gradientUnits="userSpaceOnUse">
<stop stop-color="#58BB43"/>
<stop offset="1"/>
</linearGradient>
<linearGradient id="paint44_linear_15231_632" x1="2.27461" y1="231.697" x2="544.067" y2="231.697" gradientUnits="userSpaceOnUse">
<stop stop-color="#58BB43"/>
<stop offset="1"/>
</linearGradient>
<linearGradient id="paint45_linear_15231_632" x1="1.91205" y1="279.284" x2="543.948" y2="279.284" gradientUnits="userSpaceOnUse">
<stop stop-color="#58BB43"/>
<stop offset="1"/>
</linearGradient>
<linearGradient id="paint46_linear_15231_632" x1="1.54892" y1="326.875" x2="543.829" y2="326.875" gradientUnits="userSpaceOnUse">
<stop stop-color="#58BB43"/>
<stop offset="1"/>
</linearGradient>
<linearGradient id="paint47_linear_15231_632" x1="1.18537" y1="374.466" x2="543.709" y2="374.466" gradientUnits="userSpaceOnUse">
<stop stop-color="#58BB43"/>
<stop offset="1"/>
</linearGradient>
<linearGradient id="paint48_linear_15231_632" x1="0.82181" y1="422.048" x2="543.589" y2="422.048" gradientUnits="userSpaceOnUse">
<stop stop-color="#58BB43"/>
<stop offset="1"/>
</linearGradient>
<linearGradient id="paint49_linear_15231_632" x1="0" y1="469.62" x2="543.012" y2="469.62" gradientUnits="userSpaceOnUse">
<stop stop-color="#58BB43"/>
<stop offset="1"/>
</linearGradient>
<linearGradient id="paint50_linear_15231_632" x1="0" y1="517.202" x2="543.256" y2="517.202" gradientUnits="userSpaceOnUse">
<stop stop-color="#58BB43"/>
<stop offset="1"/>
</linearGradient>
<linearGradient id="paint51_linear_15231_632" x1="0" y1="564.769" x2="543.496" y2="564.769" gradientUnits="userSpaceOnUse">
<stop stop-color="#58BB43"/>
<stop offset="1"/>
</linearGradient>
<linearGradient id="paint52_linear_15231_632" x1="-0.635091" y1="612.345" x2="543.106" y2="612.345" gradientUnits="userSpaceOnUse">
<stop stop-color="#58BB43"/>
<stop offset="1"/>
</linearGradient>
<linearGradient id="paint53_linear_15231_632" x1="-1.00026" y1="659.922" x2="542.987" y2="659.922" gradientUnits="userSpaceOnUse">
<stop stop-color="#58BB43"/>
<stop offset="1"/>
</linearGradient>
<linearGradient id="paint54_linear_15231_632" x1="-1.366" y1="707.504" x2="542.866" y2="707.504" gradientUnits="userSpaceOnUse">
<stop stop-color="#40E377"/>
<stop offset="1"/>
</linearGradient>
<linearGradient id="paint55_linear_15231_632" x1="-1.73123" y1="755.096" x2="542.746" y2="755.096" gradientUnits="userSpaceOnUse">
<stop stop-color="#58BB43"/>
<stop offset="1"/>
</linearGradient>
<linearGradient id="paint56_linear_15231_632" x1="-2.09765" y1="802.682" x2="542.625" y2="802.682" gradientUnits="userSpaceOnUse">
<stop stop-color="#58BB43"/>
<stop offset="1"/>
</linearGradient>
<linearGradient id="paint57_linear_15231_632" x1="-2.4635" y1="850.274" x2="542.505" y2="850.274" gradientUnits="userSpaceOnUse">
<stop stop-color="#58BB43"/>
<stop offset="1"/>
</linearGradient>
<linearGradient id="paint58_linear_15231_632" x1="960" y1="3.35819" x2="960" y2="357.574" gradientUnits="userSpaceOnUse">
<stop stop-color="#58BB43"/>
<stop offset="1"/>
</linearGradient>
<linearGradient id="paint59_linear_15231_632" x1="959.999" y1="52.6996" x2="959.999" y2="130.133" gradientUnits="userSpaceOnUse">
<stop stop-color="#58BB43"/>
<stop offset="1"/>
</linearGradient>
<linearGradient id="paint60_linear_15231_632" x1="959.999" y1="83.9532" x2="959.999" y2="166.054" gradientUnits="userSpaceOnUse">
<stop stop-color="#58BB43"/>
<stop offset="1"/>
</linearGradient>
<linearGradient id="paint61_linear_15231_632" x1="959.999" y1="109.906" x2="959.999" y2="196.527" gradientUnits="userSpaceOnUse">
<stop stop-color="#58BB43"/>
<stop offset="1"/>
</linearGradient>
<linearGradient id="paint62_linear_15231_632" x1="959.999" y1="131.625" x2="959.999" y2="222.596" gradientUnits="userSpaceOnUse">
<stop stop-color="#58BB43"/>
<stop offset="1"/>
</linearGradient>
<linearGradient id="paint63_linear_15231_632" x1="959.998" y1="149.894" x2="959.998" y2="245.096" gradientUnits="userSpaceOnUse">
<stop stop-color="#58BB43"/>
<stop offset="1"/>
</linearGradient>
<linearGradient id="paint64_linear_15231_632" x1="960" y1="165.345" x2="960" y2="264.639" gradientUnits="userSpaceOnUse">
<stop stop-color="#58BB43"/>
<stop offset="1"/>
</linearGradient>
<linearGradient id="paint65_linear_15231_632" x1="959.999" y1="178.441" x2="959.999" y2="281.722" gradientUnits="userSpaceOnUse">
<stop stop-color="#58BB43"/>
<stop offset="1"/>
</linearGradient>
<linearGradient id="paint66_linear_15231_632" x1="959.999" y1="189.616" x2="959.999" y2="296.718" gradientUnits="userSpaceOnUse">
<stop stop-color="#58BB43"/>
<stop offset="1"/>
</linearGradient>
<linearGradient id="paint67_linear_15231_632" x1="960" y1="199.127" x2="960" y2="309.961" gradientUnits="userSpaceOnUse">
<stop stop-color="#58BB43"/>
<stop offset="1"/>
</linearGradient>
<linearGradient id="paint68_linear_15231_632" x1="960" y1="207.221" x2="960" y2="321.703" gradientUnits="userSpaceOnUse">
<stop stop-color="#58BB43"/>
<stop offset="1"/>
</linearGradient>
<linearGradient id="paint69_linear_15231_632" x1="960" y1="214.153" x2="960" y2="332.145" gradientUnits="userSpaceOnUse">
<stop stop-color="#58BB43"/>
<stop offset="1"/>
</linearGradient>
<linearGradient id="paint70_linear_15231_632" x1="959.999" y1="220.072" x2="959.999" y2="341.468" gradientUnits="userSpaceOnUse">
<stop stop-color="#58BB43"/>
<stop offset="1"/>
</linearGradient>
<linearGradient id="paint71_linear_15231_632" x1="959.999" y1="225.097" x2="959.999" y2="349.817" gradientUnits="userSpaceOnUse">
<stop stop-color="#58BB43"/>
<stop offset="1"/>
</linearGradient>
<linearGradient id="paint72_linear_15231_632" x1="959.999" y1="229.348" x2="959.999" y2="357.314" gradientUnits="userSpaceOnUse">
<stop stop-color="#58BB43"/>
<stop offset="1"/>
</linearGradient>
<linearGradient id="paint73_linear_15231_632" x1="365.561" y1="-0.31249" x2="365.561" y2="357.58" gradientUnits="userSpaceOnUse">
<stop stop-color="#58BB43"/>
<stop offset="1"/>
</linearGradient>
<linearGradient id="paint74_linear_15231_632" x1="457.025" y1="-0.0480245" x2="457.025" y2="357.698" gradientUnits="userSpaceOnUse">
<stop stop-color="#58BB43"/>
<stop offset="1"/>
</linearGradient>
<linearGradient id="paint75_linear_15231_632" x1="548.494" y1="0.216109" x2="548.494" y2="357.815" gradientUnits="userSpaceOnUse">
<stop stop-color="#58BB43"/>
<stop offset="1"/>
</linearGradient>
<linearGradient id="paint76_linear_15231_632" x1="639.952" y1="0.480242" x2="639.952" y2="357.932" gradientUnits="userSpaceOnUse">
<stop stop-color="#58BB43"/>
<stop offset="1"/>
</linearGradient>
<linearGradient id="paint77_linear_15231_632" x1="731.412" y1="0.984375" x2="731.412" y2="358.289" gradientUnits="userSpaceOnUse">
<stop stop-color="#58BB43"/>
<stop offset="1"/>
</linearGradient>
<linearGradient id="paint78_linear_15231_632" x1="822.859" y1="0.984375" x2="822.859" y2="358.142" gradientUnits="userSpaceOnUse">
<stop stop-color="#58BB43"/>
<stop offset="1"/>
</linearGradient>
<linearGradient id="paint79_linear_15231_632" x1="914.29" y1="0.984375" x2="914.29" y2="357.996" gradientUnits="userSpaceOnUse">
<stop stop-color="#58BB43"/>
<stop offset="1"/>
</linearGradient>
<linearGradient id="paint80_linear_15231_632" x1="1005.7" y1="1.53406" x2="1005.7" y2="358.401" gradientUnits="userSpaceOnUse">
<stop stop-color="#58BB43"/>
<stop offset="1"/>
</linearGradient>
<linearGradient id="paint81_linear_15231_632" x1="1097.14" y1="1.79697" x2="1097.14" y2="358.517" gradientUnits="userSpaceOnUse">
<stop stop-color="#58BB43"/>
<stop offset="1"/>
</linearGradient>
<linearGradient id="paint82_linear_15231_632" x1="1188.59" y1="2.05999" x2="1188.59" y2="358.634" gradientUnits="userSpaceOnUse">
<stop stop-color="#58BB43"/>
<stop offset="1"/>
</linearGradient>
<linearGradient id="paint83_linear_15231_632" x1="1280.05" y1="2.32268" x2="1280.05" y2="358.75" gradientUnits="userSpaceOnUse">
<stop stop-color="#58BB43"/>
<stop offset="1"/>
</linearGradient>
<linearGradient id="paint84_linear_15231_632" x1="1371.51" y1="2.58504" x2="1371.51" y2="358.866" gradientUnits="userSpaceOnUse">
<stop stop-color="#58BB43"/>
<stop offset="1"/>
</linearGradient>
<linearGradient id="paint85_linear_15231_632" x1="1462.98" y1="2.84707" x2="1462.98" y2="358.982" gradientUnits="userSpaceOnUse">
<stop stop-color="#58BB43"/>
<stop offset="1"/>
</linearGradient>
<linearGradient id="paint86_linear_15231_632" x1="1554.44" y1="3.10942" x2="1554.44" y2="359.098" gradientUnits="userSpaceOnUse">
<stop stop-color="#58BB43"/>
<stop offset="1"/>
</linearGradient>
<linearGradient id="paint87_linear_15231_632" x1="960" y1="1078.61" x2="960" y2="724.394" gradientUnits="userSpaceOnUse">
<stop stop-color="#58BB43"/>
<stop offset="1"/>
</linearGradient>
<linearGradient id="paint88_linear_15231_632" x1="960" y1="1029.27" x2="960" y2="951.834" gradientUnits="userSpaceOnUse">
<stop stop-color="#58BB43"/>
<stop offset="1"/>
</linearGradient>
<linearGradient id="paint89_linear_15231_632" x1="960" y1="998.013" x2="960" y2="915.916" gradientUnits="userSpaceOnUse">
<stop stop-color="#58BB43"/>
<stop offset="1"/>
</linearGradient>
<linearGradient id="paint90_linear_15231_632" x1="960" y1="972.061" x2="960" y2="885.443" gradientUnits="userSpaceOnUse">
<stop stop-color="#58BB43"/>
<stop offset="1"/>
</linearGradient>
<linearGradient id="paint91_linear_15231_632" x1="960.001" y1="950.344" x2="960.001" y2="859.371" gradientUnits="userSpaceOnUse">
<stop stop-color="#58BB43"/>
<stop offset="1"/>
</linearGradient>
<linearGradient id="paint92_linear_15231_632" x1="960.001" y1="932.074" x2="960.001" y2="836.871" gradientUnits="userSpaceOnUse">
<stop stop-color="#58BB43"/>
<stop offset="1"/>
</linearGradient>
<linearGradient id="paint93_linear_15231_632" x1="960.001" y1="916.626" x2="960.001" y2="817.328" gradientUnits="userSpaceOnUse">
<stop stop-color="#58BB43"/>
<stop offset="1"/>
</linearGradient>
<linearGradient id="paint94_linear_15231_632" x1="960.002" y1="903.528" x2="960.002" y2="800.246" gradientUnits="userSpaceOnUse">
<stop stop-color="#58BB43"/>
<stop offset="1"/>
</linearGradient>
<linearGradient id="paint95_linear_15231_632" x1="960.001" y1="892.35" x2="960.001" y2="785.251" gradientUnits="userSpaceOnUse">
<stop stop-color="#58BB43"/>
<stop offset="1"/>
</linearGradient>
<linearGradient id="paint96_linear_15231_632" x1="960.001" y1="882.845" x2="960.001" y2="772.007" gradientUnits="userSpaceOnUse">
<stop stop-color="#58BB43"/>
<stop offset="1"/>
</linearGradient>
<linearGradient id="paint97_linear_15231_632" x1="960.002" y1="874.744" x2="960.002" y2="760.266" gradientUnits="userSpaceOnUse">
<stop stop-color="#58BB43"/>
<stop offset="1"/>
</linearGradient>
<linearGradient id="paint98_linear_15231_632" x1="960.001" y1="867.818" x2="960.001" y2="749.821" gradientUnits="userSpaceOnUse">
<stop stop-color="#58BB43"/>
<stop offset="1"/>
</linearGradient>
<linearGradient id="paint99_linear_15231_632" x1="960.001" y1="861.891" x2="960.001" y2="740.5" gradientUnits="userSpaceOnUse">
<stop stop-color="#58BB43"/>
<stop offset="1"/>
</linearGradient>
<linearGradient id="paint100_linear_15231_632" x1="960.001" y1="856.863" x2="960.001" y2="732.151" gradientUnits="userSpaceOnUse">
<stop stop-color="#58BB43"/>
<stop offset="1"/>
</linearGradient>
<linearGradient id="paint101_linear_15231_632" x1="960" y1="852.624" x2="960" y2="724.654" gradientUnits="userSpaceOnUse">
<stop stop-color="#58BB43"/>
<stop offset="1"/>
</linearGradient>
<linearGradient id="paint102_linear_15231_632" x1="1554.44" y1="1082.28" x2="1554.44" y2="724.388" gradientUnits="userSpaceOnUse">
<stop stop-color="#58BB43"/>
<stop offset="1"/>
</linearGradient>
<linearGradient id="paint103_linear_15231_632" x1="1462.98" y1="1082.02" x2="1462.98" y2="724.27" gradientUnits="userSpaceOnUse">
<stop stop-color="#58BB43"/>
<stop offset="1"/>
</linearGradient>
<linearGradient id="paint104_linear_15231_632" x1="1371.51" y1="1081.75" x2="1371.51" y2="724.153" gradientUnits="userSpaceOnUse">
<stop stop-color="#58BB43"/>
<stop offset="1"/>
</linearGradient>
<linearGradient id="paint105_linear_15231_632" x1="1280.05" y1="1081.49" x2="1280.05" y2="724.037" gradientUnits="userSpaceOnUse">
<stop stop-color="#58BB43"/>
<stop offset="1"/>
</linearGradient>
<linearGradient id="paint106_linear_15231_632" x1="1188.59" y1="1080.98" x2="1188.59" y2="723.679" gradientUnits="userSpaceOnUse">
<stop stop-color="#58BB43"/>
<stop offset="1"/>
</linearGradient>
<linearGradient id="paint107_linear_15231_632" x1="1097.14" y1="1080.98" x2="1097.14" y2="723.825" gradientUnits="userSpaceOnUse">
<stop stop-color="#58BB43"/>
<stop offset="1"/>
</linearGradient>
<linearGradient id="paint108_linear_15231_632" x1="1005.71" y1="1080.98" x2="1005.71" y2="723.972" gradientUnits="userSpaceOnUse">
<stop stop-color="#40E377"/>
<stop offset="1"/>
</linearGradient>
<linearGradient id="paint109_linear_15231_632" x1="914.296" y1="1080.43" x2="914.296" y2="723.567" gradientUnits="userSpaceOnUse">
<stop stop-color="#40E377"/>
<stop offset="1"/>
</linearGradient>
<linearGradient id="paint110_linear_15231_632" x1="822.859" y1="1080.17" x2="822.859" y2="723.45" gradientUnits="userSpaceOnUse">
<stop stop-color="#40E377"/>
<stop offset="1"/>
</linearGradient>
<linearGradient id="paint111_linear_15231_632" x1="731.412" y1="1079.91" x2="731.412" y2="723.334" gradientUnits="userSpaceOnUse">
<stop stop-color="#40E377"/>
<stop offset="1"/>
</linearGradient>
<linearGradient id="paint112_linear_15231_632" x1="639.952" y1="1079.65" x2="639.952" y2="723.219" gradientUnits="userSpaceOnUse">
<stop stop-color="#40E377"/>
<stop offset="1"/>
</linearGradient>
<linearGradient id="paint113_linear_15231_632" x1="548.488" y1="1079.38" x2="548.488" y2="723.102" gradientUnits="userSpaceOnUse">
<stop stop-color="#40E377"/>
<stop offset="1"/>
</linearGradient>
<linearGradient id="paint114_linear_15231_632" x1="457.024" y1="1079.12" x2="457.024" y2="722.986" gradientUnits="userSpaceOnUse">
<stop stop-color="#40E377"/>
<stop offset="1"/>
</linearGradient>
<linearGradient id="paint115_linear_15231_632" x1="365.56" y1="1078.86" x2="365.56" y2="722.869" gradientUnits="userSpaceOnUse">
<stop stop-color="#40E377"/>
<stop offset="1"/>
</linearGradient>
<clipPath id="clip0_15231_632">
<rect y="0.984375" width="1920" height="1080" fill="white"/>
</clipPath>
</defs>
</svg>
