<?xml version="1.0" standalone="no"?>
<!DOCTYPE svg PUBLIC "-//W3C//DTD SVG 1.1//EN" "http://www.w3.org/Graphics/SVG/1.1/DTD/svg11.dtd" >
<svg xmlns="http://www.w3.org/2000/svg">
<metadata>Generated by IcoMoon</metadata>
<defs>
<font id="icomoon" horiz-adv-x="1024">
<font-face units-per-em="1024" ascent="960" descent="-64" />
<missing-glyph horiz-adv-x="1024" />
<glyph unicode="&#x20;" horiz-adv-x="512" d="" />
<glyph unicode="&#xe900;" glyph-name="X" d="M900.096 72.525l-300.203 437.658 0.512-0.41 270.677 313.685h-90.453l-220.501-255.317-175.104 255.317h-237.227l280.235-408.576-295.595-342.357h90.453l245.146 284.058 194.833-284.058h237.227zM349.184 755.191l421.205-614.4h-71.68l-421.547 614.4h72.021z" />
<glyph unicode="&#xe901;" glyph-name="GitHub" d="M511.996 857.583c-226.202 0-409.6-183.398-409.6-409.6 0-191.932 132.164-352.529 310.34-396.971-1.911 5.53-3.14 11.947-3.14 19.9v70.007c-16.623 0-44.476 0-51.473 0-28.023 0-52.941 12.049-65.024 34.441-13.414 24.883-15.735 62.942-48.981 86.221-9.865 7.748-2.355 16.589 9.011 15.394 20.992-5.939 38.4-20.343 54.784-41.711 16.316-21.402 23.996-26.249 54.477-26.249 14.78 0 36.898 0.853 57.719 4.13 11.196 28.433 30.549 54.613 54.204 66.97-136.397 14.029-201.489 81.886-201.489 174.012 0 39.663 16.896 78.029 45.602 110.353-9.421 32.085-21.265 97.519 3.618 122.436 61.372 0 98.475-39.799 107.383-50.551 30.583 10.479 64.171 16.418 99.465 16.418 35.362 0 69.086-5.939 99.738-16.486 8.806 10.684 45.943 50.62 107.452 50.62 24.986-24.951 13.005-90.658 3.482-122.675 28.535-32.256 45.329-70.52 45.329-110.115 0-92.058-64.99-159.881-201.182-173.978 37.478-19.558 64.819-74.513 64.819-115.917v-93.321c0-3.55-0.785-6.11-1.195-9.148 159.607 55.945 274.261 207.497 274.261 386.219 0 226.202-183.398 409.6-409.6 409.6z" />
<glyph unicode="&#xe902;" glyph-name="EnvelopeSimple" d="M864 704h-704v-512h704v512zM928 192c0-16.973-6.746-33.246-18.752-45.248-12.002-12.006-28.275-18.752-45.248-18.752h-704c-16.974 0-33.248 6.746-45.25 18.752-12.002 12.002-18.75 28.275-18.75 45.248v544l0.167 3.292c1.648 16.127 15.271 28.708 31.833 28.708l771.29-0.167c16.128-1.648 28.71-15.271 28.71-31.833v-544zM874.368 759.587c13.026 11.941 33.267 11.066 45.21-1.958 11.942-13.027 11.063-33.265-1.958-45.208l-384-351.998c-12.233-11.217-31.014-11.217-43.251 0l-386.291 354.331c-10.787 12.112-10.863 30.662 0.333 42.875 11.195 12.209 29.666 13.732 42.667 4.042l2.542-2.083 362.377-332.165 362.372 332.165z" />
<glyph unicode="&#xe903;" glyph-name="LinkedIn" d="M819.209 823.458h-614.4c-37.717 0-68.267-30.549-68.267-68.267v-614.4c0-37.717 30.549-68.267 68.267-68.267h614.4c37.717 0 68.267 30.549 68.267 68.267v614.4c0 37.717-30.549 68.267-68.267 68.267zM373.905 209.058h-100.693v323.994h100.693v-323.994zM322.534 579.371c-32.461 0-58.709 26.317-58.709 58.709s26.283 58.675 58.709 58.675c32.358 0 58.675-26.317 58.675-58.675 0-32.393-26.317-58.709-58.675-58.709zM751.078 209.058h-100.625v157.559c0 37.581-0.683 85.914-52.326 85.914-52.395 0-60.45-40.926-60.45-83.183v-160.29h-100.625v323.994h96.597v-44.271h1.365c13.449 25.463 46.285 52.326 95.266 52.326 101.956 0 120.798-67.106 120.798-154.351v-177.698z" />
<glyph unicode="&#xe904;" glyph-name="ReadCvLogo" d="M311.201 831.924l-119.424-675.905 521.012-92.058 119.424 675.906-521.012 92.056zM775.812 52.826c-6.153-34.799-39.356-58.035-74.159-51.887l-521.012 92.058c-34.802 6.148-58.029 39.356-51.888 74.159l119.424 675.904c6.15 34.807 39.352 58.038 74.159 51.888l521.013-92.056c34.807-6.151 58.039-39.353 51.887-74.159l-119.424-675.907zM391.223 752.662l3.25-0.416 335.084-59.375c15.607-4.418 25.634-20.015 22.75-36.334-3.076-17.401-19.682-29.033-37.086-25.958l-335.082 59.375c-15.612 4.416-25.633 20.055-22.75 36.375 2.891 16.312 17.658 27.535 33.833 26.333zM368.972 626.582l3.292-0.417 331.958-58.583c17.395-3.080 28.988-19.685 25.916-37.081s-19.648-29.018-37.039-25.958l-335.168 59.331c-15.61 4.416-25.631 20.056-22.75 36.375 2.888 16.297 17.631 27.513 33.792 26.333zM346.848 500.535l3.25-0.414 165.96-29.295 3.166-0.747c15.607-4.416 25.626-20.019 22.75-36.335-2.884-16.32-17.651-27.58-33.835-26.377l-3.247 0.418-169.127 30.042c-15.613 4.416-25.633 20.053-22.75 36.373 2.891 16.316 17.658 27.537 33.833 26.334z" />
<glyph unicode="&#xe905;" glyph-name="CirclesFour" d="M416 640c0 53.019-42.981 96-96 96s-96-42.981-96-96c0-53.019 42.981-96 96-96s96 42.981 96 96zM480 640c0-88.366-71.634-160-160-160s-160 71.634-160 160c0 88.366 71.634 160 160 160s160-71.634 160-160zM800 640c0 53.019-42.982 96-96 96s-96-42.981-96-96c0-53.019 42.982-96 96-96s96 42.981 96 96zM864 640c0-88.366-71.633-160-160-160s-160 71.634-160 160c0 88.366 71.633 160 160 160s160-71.634 160-160zM416 256c0 53.018-42.981 96-96 96s-96-42.982-96-96c0-53.018 42.981-96 96-96s96 42.982 96 96zM480 256c0-88.367-71.634-160-160-160s-160 71.633-160 160c0 88.367 71.634 160 160 160s160-71.633 160-160zM800 256c0 53.018-42.982 96-96 96s-96-42.982-96-96c0-53.018 42.982-96 96-96s96 42.982 96 96zM864 256c0-88.367-71.633-160-160-160s-160 71.633-160 160c0 88.367 71.633 160 160 160s160-71.633 160-160z" />
<glyph unicode="&#xe906;" glyph-name="GearFine" d="M800 448c0 159.058-128.943 288-288 288s-288-128.942-288-288c0-159.057 128.942-288 288-288s288 128.943 288 288zM864 448c0-194.402-157.598-352-352-352-194.404 0-352 157.598-352 352 0 194.404 157.596 352 352 352 194.402 0 352-157.596 352-352zM928 480c17.673 0 32-14.327 32-32s-14.327-32-32-32h-416c-17.673 0-32 14.327-32 32s14.327 32 32 32h416zM288.006 836c14.346 8.282 32.428 4.19 41.917-8.958l1.792-2.75 208.001-360.292 1.498-2.914c6.643-14.793 1.139-32.512-13.205-40.794-14.345-8.277-32.431-4.186-41.92 8.96l-1.792 2.748-207.998 360.292-1.5 2.917c-6.647 14.793-1.138 32.507 13.208 40.791zM484.292 464c8.836 15.3 28.403 20.544 43.708 11.708s20.544-28.403 11.708-43.708l-208-360.294c-8.839-15.296-28.407-20.54-43.709-11.708-15.303 8.836-20.539 28.403-11.708 43.708l208.001 360.294zM480 768v96c0 17.673 14.327 32 32 32s32-14.327 32-32v-96c0-17.673-14.327-32-32-32s-32 14.327-32 32zM124.019 671.994c8.284 14.346 25.999 19.856 40.792 13.208l2.917-1.5 83.166-48 2.75-1.792c13.144-9.489 17.238-27.572 8.958-41.917-8.282-14.347-25.999-19.853-40.792-13.208l-2.917 1.5-83.166 48-2.75 1.792c-13.148 9.488-17.239 27.571-8.958 41.917zM192 480c17.673 0 32-14.327 32-32s-14.327-32-32-32h-96c-17.673 0-32 14.327-32 32s14.327 32 32 32h96zM218.896 315.708c15.305 8.832 34.873 3.597 43.708-11.708 8.833-15.305 3.59-34.871-11.708-43.708l-83.167-48c-15.305-8.836-34.872-3.597-43.709 11.708-8.834 15.305-3.594 34.871 11.709 43.708l83.167 48zM480 32v96c0 17.673 14.327 32 32 32s32-14.327 32-32v-96c0-17.673-14.327-32-32-32s-32 14.327-32 32zM656.009 198.583c14.345 8.282 32.427 4.19 41.916-8.956l1.792-2.752 48-83.166 1.498-2.918c6.647-14.793 1.139-32.508-13.205-40.789s-32.431-4.186-41.92 8.956l-1.792 2.752-48 83.166-1.498 2.918c-6.647 14.793-1.139 32.508 13.21 40.789zM761.417 303.991c8.282 14.349 25.997 19.857 40.789 13.21l2.918-1.498 83.166-48 2.752-1.792c13.141-9.489 17.237-27.575 8.956-41.92s-25.997-19.853-40.789-13.205l-2.918 1.498-83.166 48-2.752 1.792c-13.146 9.489-17.237 27.571-8.956 41.916zM856.29 683.707c15.309 8.835 34.876 3.596 43.712-11.708 8.832-15.303 3.588-34.871-11.712-43.709l-83.166-48c-15.305-8.834-34.871-3.594-43.708 11.709-8.832 15.305-3.593 34.872 11.708 43.708l83.166 48zM692.292 824.291c8.836 15.302 28.403 20.542 43.708 11.709 15.305-8.836 20.544-28.404 11.708-43.709l-48-83.167c-8.836-15.299-28.403-20.541-43.708-11.708-15.305 8.835-20.54 28.403-11.708 43.708l48 83.167z" />
<glyph unicode="&#xe907;" glyph-name="GearSix" d="M640 448c0 70.694-57.306 128-128 128s-128-57.306-128-128c0-70.694 57.306-128 128-128s128 57.306 128 128zM704 448c0-106.039-85.961-192-192-192s-192 85.961-192 192c0 106.039 85.961 192 192 192s192-85.961 192-192zM635.409 861.416c7.189 3.080 15.305 3.433 22.793 0.917l19.955-7.25c39.535-15.407 76.693-36.32 110.379-62.125l16.538-13.292 2.543-2.417c5.606-5.89 8.806-13.74 8.832-21.958l0.418-134.5 119.292-68 2.918-1.875c6.515-4.714 11.046-11.736 12.625-19.708 10.85-54.886 10.85-111.364 0-166.251-1.805-9.122-7.462-17.028-15.543-21.623l-119.249-67.75-0.585-134.626c-0.038-8.175-3.226-15.962-8.789-21.833l-2.5-2.419c-43.251-36.659-93.052-64.811-146.752-82.999-7.505-2.543-15.663-2.214-22.874 0.875l-3.042 1.502-120.209 67.29-120.541-67.332c-7.878-4.399-17.282-5.252-25.833-2.372-53.71 18.065-103.522 46.123-146.833 82.667-7.177 6.054-11.343 14.98-11.375 24.371l-0.5 134.583-119.292 67.959c-8.076 4.599-13.78 12.467-15.583 21.585-10.851 54.882-10.85 111.364 0 166.251l0.875 3.373c2.409 7.68 7.636 14.229 14.708 18.25l119.209 67.75 0.625 134.583 0.208 3.5c0.916 8.045 4.842 15.5 11.084 20.791l16.541 13.333c39.267 30.199 83.273 53.771 130.292 69.667l3.25 0.875c7.653 1.72 15.711 0.574 22.625-3.292l120.375-67.25 120.418 67.25 2.999 1.5zM535.616 732.5c-3.58-2-7.501-3.273-11.541-3.792l-4.083-0.25h-16c-5.457 0.003-10.82 1.382-15.582 4.042l-115.251 64.458c-36.587-13.856-70.846-33.186-101.625-57.333l-0.584-128.833c-0.019-4.354-0.902-8.66-2.625-12.625l-2-3.833-7.5-12.792c-2.848-5.039-7.009-9.222-12.041-12.083l-114.25-64.916c-5.891-37.495-5.891-75.669 0-113.169l114.375-65.122 3.75-2.5c3.556-2.752 6.531-6.217 8.666-10.21l6.792-11.622 2.125-3.959c1.844-4.087 2.817-8.525 2.833-13.043l0.417-128.751c30.794-24.064 65.053-43.294 101.625-57.079l115.502 64.414 3.665 1.749c3.776 1.519 7.821 2.291 11.917 2.291h16l4.083-0.247c4.041-0.521 7.962-1.792 11.541-3.793l114.999-64.414c36.574 13.871 70.78 33.254 101.542 57.417l0.585 128.747 0.333 4.335c0.602 4.279 2.074 8.405 4.331 12.126l7.501 12.791 2.377 3.622c2.607 3.43 5.897 6.315 9.668 8.461l114.206 64.956c5.888 37.504 5.858 75.669-0.043 113.169l-114.249 65.041c-5.239 2.985-9.532 7.393-12.373 12.709l-6.793 11.625c-2.423 3.824-4.023 8.093-4.668 12.541l-0.333 4.458-0.418 128.792c-30.805 24.069-65.079 43.299-101.666 57.083l-115.209-64.458z" />
<glyph unicode="&#xe908;" glyph-name="PaperPlaneTilt" d="M617.374 598.627c12.497 12.497 32.751 12.497 45.248 0s12.497-32.753 0-45.25l-208-207.999c-12.497-12.497-32.753-12.497-45.249 0s-12.497 32.751 0 45.248l208.001 208.001zM846.596 861.554c10.948 3.085 22.537 3.206 33.54 0.334 11.004-2.874 21.047-8.627 29.086-16.667 8.038-8.042 13.794-18.081 16.666-29.083 2.155-8.252 2.615-16.821 1.417-25.208l-1.749-8.333-0.166-0.583-232.917-767.916c-3.597-12.314-10.765-23.292-20.668-31.458-10.048-8.29-22.396-13.286-35.375-14.374-12.983-1.088-26.001 1.788-37.291 8.29s-20.339 16.307-25.916 28.083v0.043l-165.167 339.413-339.792 165.333c-11.624 5.589-21.309 14.532-27.75 25.71-6.502 11.29-9.419 24.309-8.333 37.292 1.087 12.982 6.129 25.324 14.417 35.375 8.163 9.898 19.111 17.111 31.416 20.708l768.583 233.041zM96.555 567.262l-0.583-0.166 0.292-0.167 349.748-170.125 4.587-2.752c4.318-3.085 7.817-7.215 10.163-12.041l170.334-349.999 0.166 0.623 232.67 767.335-767.377-232.709z" />
<glyph unicode="&#xe909;" glyph-name="Sun" d="M480 800v96c0 17.673 14.327 32 32 32s32-14.327 32-32v-96c0-17.673-14.327-32-32-32s-32 14.327-32 32zM704 448c0 106.039-85.961 192-192 192s-192-85.961-192-192c0-106.039 85.961-192 192-192s192 85.961 192 192zM768 448c0-141.385-114.615-256-256-256s-256 114.615-256 256c0 141.385 114.615 256 256 256s256-114.615 256-256zM169.38 790.62c11.717 11.716 30.265 12.461 42.833 2.208l2.417-2.208 64-64 2.208-2.417c10.253-12.569 9.508-31.117-2.208-42.833s-30.264-12.462-42.833-2.208l-2.417 2.208-64 64-2.208 2.417c-10.253 12.569-9.508 31.117 2.208 42.833zM233.373 214.626c12.497 12.497 32.753 12.497 45.25 0s12.497-32.751 0-45.248l-64-64c-12.497-12.497-32.753-12.497-45.25 0s-12.497 32.751 0 45.248l64 64zM809.374 790.627c12.497 12.497 32.751 12.497 45.248 0s12.497-32.753 0-45.25l-64-64c-12.497-12.497-32.751-12.497-45.248 0s-12.497 32.753 0 45.25l64 64zM745.378 214.622c11.716 11.716 30.268 12.459 42.833 2.206l2.419-2.206 64-64 2.206-2.419c10.257-12.57 9.51-31.117-2.206-42.833s-30.263-12.463-42.833-2.206l-2.419 2.206-64 64-2.206 2.419c-10.253 12.565-9.51 31.117 2.206 42.833zM160 480c17.673 0 32-14.327 32-32s-14.327-32-32-32h-96c-17.673 0-32 14.327-32 32s14.327 32 32 32h96zM480 0v96c0 17.673 14.327 32 32 32s32-14.327 32-32v-96c0-17.673-14.327-32-32-32s-32 14.327-32 32zM960 480c17.673 0 32-14.327 32-32s-14.327-32-32-32h-96c-17.673 0-32 14.327-32 32s14.327 32 32 32h96z" />
<glyph unicode="&#xe90a;" glyph-name="Tag" d="M530.752 768h-338.752v-338.709l397.376-397.291 338.624 338.752-397.248 397.248zM992 370.752c0-14.839-5.146-29.158-14.46-40.542l-4.25-4.71-338.667-338.748c-11.998-11.994-28.284-18.752-45.248-18.752s-33.25 6.716-45.252 18.709l-397.415 397.333c-11.967 11.985-18.696 28.228-18.708 45.167v370.79l0.167 3.292c1.648 16.127 15.271 28.708 31.833 28.708l377.084-0.333c14.626-1.456 28.382-7.9 38.874-18.375l397.291-397.292 4.292-4.71c9.318-11.379 14.455-25.698 14.46-40.538zM336 584c22.092 0 40 17.908 40 40s-17.908 40-40 40c-22.092 0-40-17.908-40-40s17.908-40 40-40z" />
<glyph unicode="&#xe90b;" glyph-name="User" d="M736 576c0 123.712-100.288 224-224 224s-224-100.288-224-224c0-123.712 100.288-224 224-224s224 100.288 224 224zM800 576c0-159.057-128.943-288-288-288s-288 128.943-288 288c0 159.058 128.942 288 288 288s288-128.942 288-288zM511.996 352c172.459 0 319.462-90.953 403.75-226.709l7.957-13.248 1.502-2.918c6.665-14.784 1.169-32.533-13.167-40.832-14.34-8.299-32.457-4.224-41.958 8.917l-1.792 2.748-6.916 11.584c-73.417 118.259-200.589 196.459-349.376 196.459-153.586 0-284.124-83.341-356.292-208.043-8.853-15.292-28.455-20.518-43.75-11.665-15.293 8.853-20.518 28.454-11.667 43.75 82.793 143.053 233.696 239.957 411.709 239.957z" />
<glyph unicode="&#xe90c;" glyph-name="Briefcase" d="M576 544c17.673 0 32-14.327 32-32s-14.327-32-32-32h-128c-17.673 0-32 14.327-32 32s14.327 32 32 32h128zM160 672v-512h704v512h-704zM928 160c0-35.345-28.655-64-64-64h-704c-35.346 0-64 28.655-64 64v512c0 35.346 28.654 64 64 64h704c35.345 0 64-28.654 64-64v-512zM640 704v64c0 8.487-3.375 16.624-9.374 22.625-4.497 4.496-10.193 7.518-16.333 8.75l-6.293 0.625h-192c-8.487 0-16.624-3.374-22.625-9.375s-9.375-14.138-9.375-22.625v-64c0-17.673-14.327-32-32-32s-32 14.327-32 32v64c0 25.461 10.121 49.871 28.125 67.875s42.414 28.125 67.875 28.125h192l9.502-0.458c21.969-2.184 42.624-11.916 58.372-27.667 18.005-18.004 28.126-42.414 28.126-67.875v-64c0-17.673-14.327-32-32-32s-32 14.327-32 32zM879.966 514.483c15.296 8.849 34.897 3.627 43.75-11.665 8.849-15.296 3.627-34.897-11.665-43.75-121.583-70.345-259.618-107.26-400.085-107.042v0.043c-131.65-0.196-261.161 32.179-376.999 94.165l-23 12.791-2.708 1.792c-13.158 9.498-17.256 27.614-8.958 41.958 8.3 14.34 26.046 19.836 40.833 13.167l2.917-1.498 21.125-11.793c106.552-57.015 225.695-86.818 346.79-86.626h0.085l24.209 0.333c120.789 3.802 238.886 37.478 343.706 98.125z" />
<glyph unicode="&#xe90d;" glyph-name="ArrowRight" d="M864 480c17.673 0 32-14.327 32-32s-14.327-32-32-32h-704c-17.673 0-32 14.327-32 32s14.327 32 32 32h704zM553.378 758.62c11.716 11.716 30.268 12.461 42.833 2.208l2.419-2.208 290.206-290.417c9.574-11.729 9.574-28.685 0-40.414l-2.206-2.419-288-288c-12.497-12.497-32.755-12.497-45.252 0-12.493 12.497-12.493 32.755 0 45.252l265.378 265.374-267.584 267.791c-10.253 12.569-9.51 31.117 2.206 42.833z" />
<glyph unicode="&#xe90e;" glyph-name="CaretRight" d="M726.659 425.341l-320-320c-2.976-2.973-6.506-5.331-10.387-6.938-3.885-1.61-8.048-2.438-12.253-2.438s-8.368 0.829-12.253 2.438c-3.885 1.606-7.414 3.965-10.387 6.938-2.976 2.976-5.334 6.506-6.941 10.387-1.61 3.885-2.438 8.048-2.438 12.253s0.829 8.368 2.438 12.253c1.606 3.885 3.965 7.414 6.941 10.387l297.398 297.36-297.398 297.361c-6.006 6.004-9.379 14.148-9.379 22.64s3.373 16.636 9.379 22.64c6.003 6.004 14.147 9.378 22.64 9.378 8.49 0 16.634-3.373 22.64-9.378l320-320.001c2.973-2.97 5.334-6.499 6.944-10.384s2.438-8.048 2.438-12.256c0-4.205-0.829-8.368-2.438-12.253s-3.971-7.414-6.944-10.387z" />
<glyph unicode="&#xe90f;" glyph-name="check" d="M884.237 690.751c16.247-17.068 15.582-44.075-1.485-60.322l-493.037-469.333c-8.42-8.017-19.745-12.25-31.357-11.721s-22.507 5.773-30.164 14.519l-189.63 216.614c-15.521 17.732-13.731 44.689 4 60.207 17.73 15.522 44.686 13.734 60.207-3.998l160.329-183.142 460.816 438.66c17.071 16.247 44.075 15.582 60.322-1.486z" />
<glyph unicode="&#xe910;" glyph-name="CaretLeft" d="M662.666 150.621c2.973-2.973 5.331-6.502 6.941-10.387s2.435-8.048 2.435-12.253c0-4.205-0.826-8.368-2.435-12.253-1.61-3.882-3.968-7.411-6.941-10.387-2.973-2.973-6.502-5.331-10.387-6.938-3.885-1.61-8.048-2.438-12.253-2.438s-8.368 0.829-12.253 2.438c-3.885 1.606-7.414 3.965-10.387 6.938l-320 320c-2.975 2.973-5.336 6.502-6.946 10.387s-2.439 8.048-2.439 12.253c0 4.208 0.829 8.371 2.439 12.256s3.971 7.414 6.946 10.384l320 320.001c6.003 6.004 14.147 9.378 22.64 9.378s16.634-3.373 22.64-9.378c6.003-6.004 9.376-14.148 9.376-22.64s-3.373-16.636-9.376-22.64l-297.402-297.361 297.402-297.36z" />
<glyph unicode="&#xe911;" glyph-name="quote" horiz-adv-x="1205" d="M579.575 960v-354.096c0-123.022-21.886-235.113-66.647-335.447-42.812-100.436-115.489-201.689-215.699-303.944l-29.061-29.654-248.845 198.231 35.71 36.424c74.897 76.396 124.649 148.055 152.185 214.892h-207.218v573.594h579.575zM270.346 432.423c-3.565-15.234-8.158-30.572-13.778-46.017-25.13-69.060-70.801-140.225-137.012-213.498-10.079-11.156-20.634-22.356-31.664-33.608l176.472-140.58c97.708 99.701 166.503 196.412 206.384 290.132 41.873 93.72 62.81 199.403 62.81 317.051v308.080h-487.542v-481.561h224.329zM1204.706 960v-354.096c0-123.022-21.89-235.116-66.647-335.45-42.815-100.436-115.489-201.689-215.7-303.941l-29.061-29.654-248.844 198.231 35.707 36.424c74.897 76.396 124.651 148.055 152.187 214.892h-207.218v573.594h579.575zM895.476 432.423c-3.566-15.234-8.156-30.572-13.776-46.017-25.13-69.060-70.801-140.225-137.014-213.498-10.077-11.156-20.634-22.356-31.663-33.608l176.471-140.58c97.708 99.701 166.502 196.412 206.384 290.132 41.873 93.72 62.81 199.403 62.81 317.051v308.080h-487.541v-481.561h224.328z" />
<glyph unicode="&#xe923;" glyph-name="dribbble" d="M512 832c-211.75 0-384-172.25-384-384s172.25-384 384-384c211.75 0 384 172.25 384 384s-172.25 384-384 384zM512 768c81.126 0 154.624-30.5 210.999-80-5.999-8.375-14.123-18.5-26.999-31-27.375-26.5-71.125-58.375-138.001-83-45.248 83.625-89.626 146.5-118.997 186 23.373 5.375 47.872 8 72.998 8zM376 738c26.25-34.375 72.998-98.125 120-183-130.125-34.501-249.5-38.874-297-38.998 21.25 98.873 87.75 180.248 177 221.998zM767.002 641c38.997-51.625 63.249-115.5 64.998-185-28.501 6.374-70.498 12.625-125.001 13.001-28.373 0.124-60.501-1.877-94.997-5.999-8.004 18.249-16.627 35.874-25.003 53.001 71.753 27.498 120.627 63.748 153.003 94.998 10.999 10.75 19.622 20.625 26.999 30zM525.001 496.998c7.373-14.874 14.874-30.123 21.999-45.999-136.75-37.875-234.999-153.873-277-211.998-48.375 56-78 128.998-78 208.998 0 1.374 0 2.624 0 4.002 43.25-0.503 180.75 2.496 333.001 44.996zM706.999 405.999c57.126 0 96.627-8 120-13.999-14.874-85.248-63.002-158.374-130.999-205.999-12.749 76.497-33.749 149.248-58.999 216 25.25 2.5 49.126 3.998 69.999 3.998zM571.998 391.002c28.753-73.003 52.877-153.126 65.003-238.003-38.251-16.124-80.751-24.998-125.001-24.998-73.374 0-141.125 24.623-195 66.001 32.875 45.001 129.498 164.749 254.998 197.001z" />
<glyph unicode="&#xe946;" glyph-name="times-solid" d="M231 775l-46-46 281.001-281-281.001-280.998 46-46.003 281 281.003 280.998-281.003 46.003 46.003-281.003 280.998 281.003 281-46.003 46-280.998-281.001-281 281.001z" />
<glyph unicode="&#xe950;" glyph-name="user-friends-solid" d="M288 736c-105.625 0-192-86.375-192-192 0-63.5 31.25-120 79-155-84.375-41.875-143-128.625-143-229h64c0 106.375 85.625 192 192 192s192-85.625 192-192h64c0 106.375 85.625 192 192 192s192-85.625 192-192h64c0 100.375-58.625 187.125-143 229 47.75 35 79 91.5 79 155 0 105.625-86.375 192-192 192s-192-86.375-192-192c0-63.5 31.25-120 79-155-46.625-23.125-85.75-59.625-111-105-25.25 45.375-64.375 81.875-111 105 47.75 35 79 91.5 79 155 0 105.625-86.375 192-192 192zM288 672c71.125 0 128-56.875 128-128s-56.875-128-128-128c-71.125 0-128 56.875-128 128s56.875 128 128 128zM736 672c71.125 0 128-56.875 128-128s-56.875-128-128-128c-71.125 0-128 56.875-128 128s56.875 128 128 128z" />
<glyph unicode="&#xe951;" glyph-name="poll-h-solid" d="M160 800v-704h704v704h-704zM224 736h576v-576h-576v576zM320 640v-64h256v64h-256zM320 480v-64h384v64h-384zM320 320v-64h192v64h-192z" />
</font>
</defs>
</svg>
